<mxfile host="app.diagrams.net" agent="Mozilla/5.0 (Windows NT 10.0; Win64; x64) AppleWebKit/537.36 (KHTML, like Gecko) Chrome/134.0.0.0 Safari/537.36" version="26.2.8">
  <diagram id="C5RBs43oDa-KdzZeNtuy" name="Page-1">
    <mxGraphModel dx="1680" dy="2043" grid="1" gridSize="10" guides="1" tooltips="1" connect="1" arrows="1" fold="1" page="1" pageScale="1" pageWidth="827" pageHeight="1169" math="0" shadow="0">
      <root>
        <mxCell id="WIyWlLk6GJQsqaUBKTNV-0" />
        <mxCell id="WIyWlLk6GJQsqaUBKTNV-1" parent="WIyWlLk6GJQsqaUBKTNV-0" />
        <mxCell id="ugXuljr5ALglEN-ZKIRf-1" value="" style="edgeStyle=orthogonalEdgeStyle;rounded=0;orthogonalLoop=1;jettySize=auto;html=1;" edge="1" parent="WIyWlLk6GJQsqaUBKTNV-1" source="WIyWlLk6GJQsqaUBKTNV-3" target="ugXuljr5ALglEN-ZKIRf-0">
          <mxGeometry relative="1" as="geometry" />
        </mxCell>
        <mxCell id="ugXuljr5ALglEN-ZKIRf-2" style="edgeStyle=orthogonalEdgeStyle;rounded=0;orthogonalLoop=1;jettySize=auto;html=1;" edge="1" parent="WIyWlLk6GJQsqaUBKTNV-1" source="WIyWlLk6GJQsqaUBKTNV-3">
          <mxGeometry relative="1" as="geometry">
            <mxPoint x="1010" y="-40" as="targetPoint" />
          </mxGeometry>
        </mxCell>
        <mxCell id="WIyWlLk6GJQsqaUBKTNV-3" value="get script dir" style="rounded=1;whiteSpace=wrap;html=1;fontSize=12;glass=0;strokeWidth=1;shadow=0;" parent="WIyWlLk6GJQsqaUBKTNV-1" vertex="1">
          <mxGeometry x="890" y="-140" width="120" height="40" as="geometry" />
        </mxCell>
        <mxCell id="ugXuljr5ALglEN-ZKIRf-0" value="construct config file path" style="whiteSpace=wrap;html=1;rounded=1;glass=0;strokeWidth=1;shadow=0;" vertex="1" parent="WIyWlLk6GJQsqaUBKTNV-1">
          <mxGeometry x="820" y="-40" width="120" height="60" as="geometry" />
        </mxCell>
        <mxCell id="ugXuljr5ALglEN-ZKIRf-31" value="" style="edgeStyle=orthogonalEdgeStyle;rounded=0;orthogonalLoop=1;jettySize=auto;html=1;" edge="1" parent="WIyWlLk6GJQsqaUBKTNV-1" source="ugXuljr5ALglEN-ZKIRf-3" target="ugXuljr5ALglEN-ZKIRf-30">
          <mxGeometry relative="1" as="geometry" />
        </mxCell>
        <mxCell id="ugXuljr5ALglEN-ZKIRf-3" value="construct sheets file path" style="whiteSpace=wrap;html=1;rounded=1;glass=0;strokeWidth=1;shadow=0;" vertex="1" parent="WIyWlLk6GJQsqaUBKTNV-1">
          <mxGeometry x="950" y="-40" width="120" height="60" as="geometry" />
        </mxCell>
        <mxCell id="ugXuljr5ALglEN-ZKIRf-4" value="Markdown files all created and linked" style="rounded=1;whiteSpace=wrap;html=1;" vertex="1" parent="WIyWlLk6GJQsqaUBKTNV-1">
          <mxGeometry x="350" y="1410" width="120" height="60" as="geometry" />
        </mxCell>
        <mxCell id="ugXuljr5ALglEN-ZKIRf-14" value="" style="edgeStyle=orthogonalEdgeStyle;rounded=0;orthogonalLoop=1;jettySize=auto;html=1;" edge="1" parent="WIyWlLk6GJQsqaUBKTNV-1" source="ugXuljr5ALglEN-ZKIRf-5" target="ugXuljr5ALglEN-ZKIRf-13">
          <mxGeometry relative="1" as="geometry" />
        </mxCell>
        <mxCell id="ugXuljr5ALglEN-ZKIRf-5" value="Create Links" style="rounded=1;whiteSpace=wrap;html=1;" vertex="1" parent="WIyWlLk6GJQsqaUBKTNV-1">
          <mxGeometry x="359" y="1110" width="120" height="60" as="geometry" />
        </mxCell>
        <mxCell id="ugXuljr5ALglEN-ZKIRf-6" value="Create files" style="rounded=1;whiteSpace=wrap;html=1;" vertex="1" parent="WIyWlLk6GJQsqaUBKTNV-1">
          <mxGeometry x="354" y="1010" width="120" height="60" as="geometry" />
        </mxCell>
        <mxCell id="ugXuljr5ALglEN-ZKIRf-8" value="Create List of filenames" style="rounded=1;whiteSpace=wrap;html=1;" vertex="1" parent="WIyWlLk6GJQsqaUBKTNV-1">
          <mxGeometry x="354" y="840" width="120" height="60" as="geometry" />
        </mxCell>
        <mxCell id="ugXuljr5ALglEN-ZKIRf-20" value="" style="edgeStyle=orthogonalEdgeStyle;rounded=0;orthogonalLoop=1;jettySize=auto;html=1;entryX=0.5;entryY=0;entryDx=0;entryDy=0;" edge="1" parent="WIyWlLk6GJQsqaUBKTNV-1" source="ugXuljr5ALglEN-ZKIRf-10" target="ugXuljr5ALglEN-ZKIRf-34">
          <mxGeometry relative="1" as="geometry" />
        </mxCell>
        <mxCell id="ugXuljr5ALglEN-ZKIRf-10" value="Create Major subjects list (Principles, Hours, Mansus, people/creatures, places,&amp;nbsp; concepts, groups/organization, secret Histories&lt;span style=&quot;background-color: transparent; color: light-dark(rgb(0, 0, 0), rgb(255, 255, 255));&quot;&gt;)&lt;/span&gt;" style="rounded=1;whiteSpace=wrap;html=1;" vertex="1" parent="WIyWlLk6GJQsqaUBKTNV-1">
          <mxGeometry x="40" y="660" width="210" height="80" as="geometry" />
        </mxCell>
        <mxCell id="ugXuljr5ALglEN-ZKIRf-11" value="Create Masterlists" style="rounded=1;whiteSpace=wrap;html=1;" vertex="1" parent="WIyWlLk6GJQsqaUBKTNV-1">
          <mxGeometry x="500" y="850" width="120" height="60" as="geometry" />
        </mxCell>
        <mxCell id="ugXuljr5ALglEN-ZKIRf-13" value="Create Reverse Links" style="whiteSpace=wrap;html=1;rounded=1;" vertex="1" parent="WIyWlLk6GJQsqaUBKTNV-1">
          <mxGeometry x="359" y="1250" width="120" height="60" as="geometry" />
        </mxCell>
        <mxCell id="ugXuljr5ALglEN-ZKIRf-27" value="" style="edgeStyle=orthogonalEdgeStyle;rounded=0;orthogonalLoop=1;jettySize=auto;html=1;" edge="1" parent="WIyWlLk6GJQsqaUBKTNV-1" source="ugXuljr5ALglEN-ZKIRf-19" target="ugXuljr5ALglEN-ZKIRf-26">
          <mxGeometry relative="1" as="geometry" />
        </mxCell>
        <mxCell id="ugXuljr5ALglEN-ZKIRf-19" value="Consrtuct file structures" style="whiteSpace=wrap;html=1;rounded=1;" vertex="1" parent="WIyWlLk6GJQsqaUBKTNV-1">
          <mxGeometry x="85" y="910" width="120" height="60" as="geometry" />
        </mxCell>
        <mxCell id="ugXuljr5ALglEN-ZKIRf-21" value="Differentiate Links from Content" style="rounded=1;whiteSpace=wrap;html=1;" vertex="1" parent="WIyWlLk6GJQsqaUBKTNV-1">
          <mxGeometry x="470" y="720" width="120" height="60" as="geometry" />
        </mxCell>
        <mxCell id="ugXuljr5ALglEN-ZKIRf-22" value="Create a list with links" style="rounded=1;whiteSpace=wrap;html=1;" vertex="1" parent="WIyWlLk6GJQsqaUBKTNV-1">
          <mxGeometry x="299" y="710" width="120" height="60" as="geometry" />
        </mxCell>
        <mxCell id="ugXuljr5ALglEN-ZKIRf-29" value="" style="edgeStyle=orthogonalEdgeStyle;rounded=0;orthogonalLoop=1;jettySize=auto;html=1;" edge="1" parent="WIyWlLk6GJQsqaUBKTNV-1" source="ugXuljr5ALglEN-ZKIRf-26" target="ugXuljr5ALglEN-ZKIRf-28">
          <mxGeometry relative="1" as="geometry" />
        </mxCell>
        <mxCell id="ugXuljr5ALglEN-ZKIRf-26" value="Collect all Key Pairs for each subject" style="whiteSpace=wrap;html=1;rounded=1;" vertex="1" parent="WIyWlLk6GJQsqaUBKTNV-1">
          <mxGeometry x="85" y="1050" width="120" height="60" as="geometry" />
        </mxCell>
        <mxCell id="ugXuljr5ALglEN-ZKIRf-28" value="Label content by source (CS, BoH)" style="whiteSpace=wrap;html=1;rounded=1;" vertex="1" parent="WIyWlLk6GJQsqaUBKTNV-1">
          <mxGeometry x="85" y="1190" width="120" height="60" as="geometry" />
        </mxCell>
        <mxCell id="ugXuljr5ALglEN-ZKIRf-30" value="Construct urls" style="whiteSpace=wrap;html=1;rounded=1;glass=0;strokeWidth=1;shadow=0;" vertex="1" parent="WIyWlLk6GJQsqaUBKTNV-1">
          <mxGeometry x="950" y="60" width="120" height="60" as="geometry" />
        </mxCell>
        <mxCell id="ugXuljr5ALglEN-ZKIRf-32" value="read rows to dfs" style="whiteSpace=wrap;html=1;rounded=1;glass=0;strokeWidth=1;shadow=0;" vertex="1" parent="WIyWlLk6GJQsqaUBKTNV-1">
          <mxGeometry x="110" y="400" width="120" height="60" as="geometry" />
        </mxCell>
        <mxCell id="ugXuljr5ALglEN-ZKIRf-35" style="edgeStyle=orthogonalEdgeStyle;rounded=0;orthogonalLoop=1;jettySize=auto;html=1;entryX=0.5;entryY=0;entryDx=0;entryDy=0;" edge="1" parent="WIyWlLk6GJQsqaUBKTNV-1" source="ugXuljr5ALglEN-ZKIRf-34" target="ugXuljr5ALglEN-ZKIRf-19">
          <mxGeometry relative="1" as="geometry" />
        </mxCell>
        <mxCell id="ugXuljr5ALglEN-ZKIRf-34" value="Logic for populating Major Subjects" style="whiteSpace=wrap;html=1;rounded=1;" vertex="1" parent="WIyWlLk6GJQsqaUBKTNV-1">
          <mxGeometry x="85" y="790" width="120" height="60" as="geometry" />
        </mxCell>
        <mxCell id="ugXuljr5ALglEN-ZKIRf-36" value="Separate Meta Subjects from game specific (mechanics, non-linked)" style="rounded=1;whiteSpace=wrap;html=1;" vertex="1" parent="WIyWlLk6GJQsqaUBKTNV-1">
          <mxGeometry x="340" y="620" width="120" height="60" as="geometry" />
        </mxCell>
        <mxCell id="ugXuljr5ALglEN-ZKIRf-37" value="Get Specific filenames to be written for each game (with path)" style="whiteSpace=wrap;html=1;rounded=1;glass=0;strokeWidth=1;shadow=0;" vertex="1" parent="WIyWlLk6GJQsqaUBKTNV-1">
          <mxGeometry x="294" y="525" width="120" height="60" as="geometry" />
        </mxCell>
        <mxCell id="ugXuljr5ALglEN-ZKIRf-46" value="Create Subfolder" style="rounded=1;whiteSpace=wrap;html=1;" vertex="1" parent="WIyWlLk6GJQsqaUBKTNV-1">
          <mxGeometry x="1030" y="410" width="120" height="60" as="geometry" />
        </mxCell>
        <mxCell id="ugXuljr5ALglEN-ZKIRf-68" value="" style="edgeStyle=orthogonalEdgeStyle;rounded=0;orthogonalLoop=1;jettySize=auto;html=1;" edge="1" parent="WIyWlLk6GJQsqaUBKTNV-1" source="ugXuljr5ALglEN-ZKIRf-65" target="ugXuljr5ALglEN-ZKIRf-67">
          <mxGeometry relative="1" as="geometry" />
        </mxCell>
        <mxCell id="ugXuljr5ALglEN-ZKIRf-65" value="Read Sheet to df" style="rounded=1;whiteSpace=wrap;html=1;" vertex="1" parent="WIyWlLk6GJQsqaUBKTNV-1">
          <mxGeometry x="900" y="480" width="120" height="60" as="geometry" />
        </mxCell>
        <mxCell id="ugXuljr5ALglEN-ZKIRf-81" value="" style="edgeStyle=orthogonalEdgeStyle;rounded=0;orthogonalLoop=1;jettySize=auto;html=1;" edge="1" parent="WIyWlLk6GJQsqaUBKTNV-1" source="ugXuljr5ALglEN-ZKIRf-67" target="ugXuljr5ALglEN-ZKIRf-80">
          <mxGeometry relative="1" as="geometry" />
        </mxCell>
        <mxCell id="ugXuljr5ALglEN-ZKIRf-67" value="Read Indicies" style="rounded=1;whiteSpace=wrap;html=1;" vertex="1" parent="WIyWlLk6GJQsqaUBKTNV-1">
          <mxGeometry x="900" y="600" width="120" height="60" as="geometry" />
        </mxCell>
        <mxCell id="ugXuljr5ALglEN-ZKIRf-75" value="" style="edgeStyle=orthogonalEdgeStyle;rounded=0;orthogonalLoop=1;jettySize=auto;html=1;" edge="1" parent="WIyWlLk6GJQsqaUBKTNV-1" source="ugXuljr5ALglEN-ZKIRf-72" target="ugXuljr5ALglEN-ZKIRf-74">
          <mxGeometry relative="1" as="geometry" />
        </mxCell>
        <mxCell id="ugXuljr5ALglEN-ZKIRf-72" value="For Each Game" style="rhombus;whiteSpace=wrap;html=1;" vertex="1" parent="WIyWlLk6GJQsqaUBKTNV-1">
          <mxGeometry x="920" y="180" width="80" height="80" as="geometry" />
        </mxCell>
        <mxCell id="ugXuljr5ALglEN-ZKIRf-76" style="edgeStyle=orthogonalEdgeStyle;rounded=0;orthogonalLoop=1;jettySize=auto;html=1;entryX=0.5;entryY=0;entryDx=0;entryDy=0;" edge="1" parent="WIyWlLk6GJQsqaUBKTNV-1" source="ugXuljr5ALglEN-ZKIRf-74" target="ugXuljr5ALglEN-ZKIRf-46">
          <mxGeometry relative="1" as="geometry" />
        </mxCell>
        <mxCell id="ugXuljr5ALglEN-ZKIRf-77" value="" style="edgeStyle=orthogonalEdgeStyle;rounded=0;orthogonalLoop=1;jettySize=auto;html=1;" edge="1" parent="WIyWlLk6GJQsqaUBKTNV-1" source="ugXuljr5ALglEN-ZKIRf-74" target="ugXuljr5ALglEN-ZKIRf-65">
          <mxGeometry relative="1" as="geometry" />
        </mxCell>
        <mxCell id="ugXuljr5ALglEN-ZKIRf-92" style="edgeStyle=orthogonalEdgeStyle;rounded=0;orthogonalLoop=1;jettySize=auto;html=1;" edge="1" parent="WIyWlLk6GJQsqaUBKTNV-1" source="ugXuljr5ALglEN-ZKIRf-74" target="ugXuljr5ALglEN-ZKIRf-93">
          <mxGeometry relative="1" as="geometry">
            <mxPoint x="820" y="380" as="targetPoint" />
          </mxGeometry>
        </mxCell>
        <mxCell id="ugXuljr5ALglEN-ZKIRf-74" value="For Each Sheet" style="rhombus;whiteSpace=wrap;html=1;" vertex="1" parent="WIyWlLk6GJQsqaUBKTNV-1">
          <mxGeometry x="920" y="340" width="80" height="80" as="geometry" />
        </mxCell>
        <mxCell id="ugXuljr5ALglEN-ZKIRf-83" value="" style="edgeStyle=orthogonalEdgeStyle;rounded=0;orthogonalLoop=1;jettySize=auto;html=1;" edge="1" parent="WIyWlLk6GJQsqaUBKTNV-1" source="ugXuljr5ALglEN-ZKIRf-80" target="ugXuljr5ALglEN-ZKIRf-82">
          <mxGeometry relative="1" as="geometry" />
        </mxCell>
        <mxCell id="ugXuljr5ALglEN-ZKIRf-89" value="" style="edgeStyle=orthogonalEdgeStyle;rounded=0;orthogonalLoop=1;jettySize=auto;html=1;" edge="1" parent="WIyWlLk6GJQsqaUBKTNV-1" source="ugXuljr5ALglEN-ZKIRf-80" target="ugXuljr5ALglEN-ZKIRf-88">
          <mxGeometry relative="1" as="geometry" />
        </mxCell>
        <mxCell id="ugXuljr5ALglEN-ZKIRf-80" value="For Each Index" style="rhombus;whiteSpace=wrap;html=1;" vertex="1" parent="WIyWlLk6GJQsqaUBKTNV-1">
          <mxGeometry x="920" y="720" width="80" height="80" as="geometry" />
        </mxCell>
        <mxCell id="ugXuljr5ALglEN-ZKIRf-82" value="Create Filename and path" style="rounded=1;whiteSpace=wrap;html=1;" vertex="1" parent="WIyWlLk6GJQsqaUBKTNV-1">
          <mxGeometry x="1010" y="810" width="120" height="60" as="geometry" />
        </mxCell>
        <mxCell id="ugXuljr5ALglEN-ZKIRf-91" value="" style="edgeStyle=orthogonalEdgeStyle;rounded=0;orthogonalLoop=1;jettySize=auto;html=1;" edge="1" parent="WIyWlLk6GJQsqaUBKTNV-1" source="ugXuljr5ALglEN-ZKIRf-88" target="ugXuljr5ALglEN-ZKIRf-90">
          <mxGeometry relative="1" as="geometry" />
        </mxCell>
        <mxCell id="ugXuljr5ALglEN-ZKIRf-88" value="For each Key Value Pair" style="rhombus;whiteSpace=wrap;html=1;" vertex="1" parent="WIyWlLk6GJQsqaUBKTNV-1">
          <mxGeometry x="910" y="840" width="100" height="110" as="geometry" />
        </mxCell>
        <mxCell id="ugXuljr5ALglEN-ZKIRf-90" value="Populate Content Dict" style="rounded=1;whiteSpace=wrap;html=1;" vertex="1" parent="WIyWlLk6GJQsqaUBKTNV-1">
          <mxGeometry x="900" y="990" width="120" height="60" as="geometry" />
        </mxCell>
        <mxCell id="ugXuljr5ALglEN-ZKIRf-93" value="Create Content Dict" style="rounded=1;whiteSpace=wrap;html=1;" vertex="1" parent="WIyWlLk6GJQsqaUBKTNV-1">
          <mxGeometry x="760" y="480" width="120" height="60" as="geometry" />
        </mxCell>
      </root>
    </mxGraphModel>
  </diagram>
</mxfile>
